<mxfile host="app.diagrams.net" agent="Mozilla/5.0 (Windows NT 10.0; Win64; x64) AppleWebKit/537.36 (KHTML, like Gecko) Chrome/140.0.0.0 Safari/537.36" version="28.2.3">
  <diagram name="Trang-1" id="BwtL_TbZqfZ1osasSO39">
    <mxGraphModel dx="786" dy="459" grid="1" gridSize="10" guides="1" tooltips="1" connect="1" arrows="1" fold="1" page="1" pageScale="1" pageWidth="827" pageHeight="1169" math="0" shadow="0">
      <root>
        <mxCell id="0" />
        <mxCell id="1" parent="0" />
        <mxCell id="KeISsNbbLc4DGIj4eQvq-3" value="" style="edgeStyle=orthogonalEdgeStyle;rounded=0;orthogonalLoop=1;jettySize=auto;html=1;" edge="1" parent="1" source="KeISsNbbLc4DGIj4eQvq-1" target="KeISsNbbLc4DGIj4eQvq-2">
          <mxGeometry relative="1" as="geometry" />
        </mxCell>
        <mxCell id="KeISsNbbLc4DGIj4eQvq-1" value="Bắt đầu" style="ellipse;whiteSpace=wrap;html=1;" vertex="1" parent="1">
          <mxGeometry x="354" y="40" width="120" height="80" as="geometry" />
        </mxCell>
        <mxCell id="KeISsNbbLc4DGIj4eQvq-5" value="" style="edgeStyle=orthogonalEdgeStyle;rounded=0;orthogonalLoop=1;jettySize=auto;html=1;" edge="1" parent="1" source="KeISsNbbLc4DGIj4eQvq-2" target="KeISsNbbLc4DGIj4eQvq-4">
          <mxGeometry relative="1" as="geometry" />
        </mxCell>
        <mxCell id="KeISsNbbLc4DGIj4eQvq-2" value="Liên hệ các công việc cần làm trong ngày" style="shape=parallelogram;perimeter=parallelogramPerimeter;whiteSpace=wrap;html=1;fixedSize=1;" vertex="1" parent="1">
          <mxGeometry x="349.5" y="170" width="129" height="60" as="geometry" />
        </mxCell>
        <mxCell id="KeISsNbbLc4DGIj4eQvq-6" style="edgeStyle=orthogonalEdgeStyle;rounded=0;orthogonalLoop=1;jettySize=auto;html=1;" edge="1" parent="1">
          <mxGeometry relative="1" as="geometry">
            <mxPoint x="280" y="370" as="targetPoint" />
            <mxPoint x="347" y="330" as="sourcePoint" />
            <Array as="points">
              <mxPoint x="347" y="310" />
              <mxPoint x="281" y="310" />
            </Array>
          </mxGeometry>
        </mxCell>
        <mxCell id="KeISsNbbLc4DGIj4eQvq-13" style="edgeStyle=orthogonalEdgeStyle;rounded=0;orthogonalLoop=1;jettySize=auto;html=1;exitX=1;exitY=0.5;exitDx=0;exitDy=0;entryX=1;entryY=0.5;entryDx=0;entryDy=0;" edge="1" parent="1" source="KeISsNbbLc4DGIj4eQvq-4" target="KeISsNbbLc4DGIj4eQvq-10">
          <mxGeometry relative="1" as="geometry">
            <Array as="points">
              <mxPoint x="550" y="310" />
              <mxPoint x="550" y="480" />
            </Array>
          </mxGeometry>
        </mxCell>
        <mxCell id="KeISsNbbLc4DGIj4eQvq-14" value="có" style="edgeLabel;html=1;align=center;verticalAlign=middle;resizable=0;points=[];" vertex="1" connectable="0" parent="KeISsNbbLc4DGIj4eQvq-13">
          <mxGeometry x="-0.0826" relative="1" as="geometry">
            <mxPoint as="offset" />
          </mxGeometry>
        </mxCell>
        <mxCell id="KeISsNbbLc4DGIj4eQvq-4" value="Chọn công việc làm trước" style="whiteSpace=wrap;html=1;" vertex="1" parent="1">
          <mxGeometry x="347" y="280" width="134" height="60" as="geometry" />
        </mxCell>
        <mxCell id="KeISsNbbLc4DGIj4eQvq-12" style="edgeStyle=orthogonalEdgeStyle;rounded=0;orthogonalLoop=1;jettySize=auto;html=1;exitX=0.5;exitY=1;exitDx=0;exitDy=0;entryX=0;entryY=0.5;entryDx=0;entryDy=0;" edge="1" parent="1" source="KeISsNbbLc4DGIj4eQvq-8" target="KeISsNbbLc4DGIj4eQvq-10">
          <mxGeometry relative="1" as="geometry" />
        </mxCell>
        <mxCell id="KeISsNbbLc4DGIj4eQvq-8" value="Hoàn thành công việc và đánh dấu đã xong" style="rounded=0;whiteSpace=wrap;html=1;" vertex="1" parent="1">
          <mxGeometry x="220" y="370" width="120" height="60" as="geometry" />
        </mxCell>
        <mxCell id="KeISsNbbLc4DGIj4eQvq-15" style="edgeStyle=orthogonalEdgeStyle;rounded=0;orthogonalLoop=1;jettySize=auto;html=1;exitX=0.5;exitY=1;exitDx=0;exitDy=0;" edge="1" parent="1" source="KeISsNbbLc4DGIj4eQvq-10" target="KeISsNbbLc4DGIj4eQvq-16">
          <mxGeometry relative="1" as="geometry">
            <mxPoint x="414" y="570" as="targetPoint" />
            <Array as="points">
              <mxPoint x="414" y="530" />
              <mxPoint x="414" y="530" />
            </Array>
          </mxGeometry>
        </mxCell>
        <mxCell id="KeISsNbbLc4DGIj4eQvq-17" value="Text" style="edgeLabel;html=1;align=center;verticalAlign=middle;resizable=0;points=[];" vertex="1" connectable="0" parent="KeISsNbbLc4DGIj4eQvq-15">
          <mxGeometry x="-0.0933" y="2" relative="1" as="geometry">
            <mxPoint as="offset" />
          </mxGeometry>
        </mxCell>
        <mxCell id="KeISsNbbLc4DGIj4eQvq-10" value="Công việc nào xong chưa" style="rhombus;whiteSpace=wrap;html=1;" vertex="1" parent="1">
          <mxGeometry x="374" y="440" width="80" height="80" as="geometry" />
        </mxCell>
        <mxCell id="KeISsNbbLc4DGIj4eQvq-16" value="Kết thúc" style="ellipse;whiteSpace=wrap;html=1;" vertex="1" parent="1">
          <mxGeometry x="354" y="570" width="120" height="80" as="geometry" />
        </mxCell>
      </root>
    </mxGraphModel>
  </diagram>
</mxfile>
